<?xml version="1.0" encoding="UTF-8"?>
<svg viewBox="0 0 166.37231 168.47308" xmlns="http://www.w3.org/2000/svg">
 <defs>
  <linearGradient id="a" x1="379.92" x2="387.75" y1="-298.54" y2="-148.13" gradientUnits="userSpaceOnUse">
   <stop stop-color="#0146a8" offset="0"/>
   <stop stop-color="#0146a8" stop-opacity="0" offset="1"/>
  </linearGradient>
  <linearGradient id="b" x1="381.89" x2="387.75" y1="-310.05" y2="-147.97" gradientTransform="matrix(.93571 0 0 .97143 738.55 1229)" gradientUnits="userSpaceOnUse">
   <stop stop-color="#edf4fd" stop-opacity=".52846" offset="0"/>
   <stop stop-color="#175bb3" stop-opacity="0" offset="1"/>
  </linearGradient>
 </defs>
 <g transform="matrix(.75853 0 0 .75853 -752.24 -693.33)">
  <path transform="matrix(1 0 0 1.0126 713.63 1236.2)" d="m497.42-208.45c0 60.568-49.1 109.67-109.67 109.67s-109.67-49.1-109.67-109.67 49.1-109.67 109.67-109.67 109.67 49.1 109.67 109.67z" fill="#103683"/>
  <path transform="matrix(.93571 0 0 .97143 738.55 1229)" d="m497.42-208.45c0 60.568-49.1 109.67-109.67 109.67s-109.67-49.1-109.67-109.67 49.1-109.67 109.67-109.67 109.67 49.1 109.67 109.67z" fill="url(#a)"/>
  <path d="m1041.3041,970.89689c-6.648,0-12,5.352-12,12v60.59371c0,6.648 5.352,12 12,12h71.4687c9.4698,13.2695 33.7753,47.2439 34,46.3438 .228-.9103.5782-33.0435.7188-46.3438h10.8125c6.648,0 12-5.352 12-12v-60.59371c0-6.648-5.352-12-12-12h-117zm17.8125,25.28125c1.6844,3e-005 3.1964.24203 4.5312.71875 1.3509.47677 2.4539,1.10448 3.3438,1.90625 .9057.80184 1.6017,1.71236 2.0625,2.68746 .4768.9752.7187,1.912.7187,2.8438 0,1.0185-.2728,1.8499-.7812,2.5-.4927.6501-1.2033.9688-2.125.9687-.6674.0001-1.242-.2611-1.7188-.7812-.4607-.5201-.99-1.2723-1.5937-2.3125-.4927-.8668-1.0516-1.5737-1.7187-2.0938s-1.5747-.7812-2.7188-.7812c-1.1759,0-2.1589.3378-2.9375,1.0312-.7787.6718-1.1563,1.5128-1.1563,2.5313 0,.9318.2717,1.7057.8438,2.3125 .572.5851 1.3431,1.0787 2.3125,1.4687s2.2997.8741 4,1.4375c2.0182.6718 3.6662,1.4745 4.9375,2.4063 1.2872.9318 2.2548,2.0339 2.9062,3.3125 .6676,1.2569 1,2.6872 1,4.3125 0,2.4488-.4385,4.5572-1.3124,6.3125-.8741,1.7336-2.1589,3.0586-3.875,3.9687-1.7005.8885-3.7716,1.3438-6.2188,1.3438-2.336,0-4.3314-.4936-6-1.4688s-2.9241-2.2043-3.7188-3.6562c-.7944-1.4736-1.1874-2.9327-1.1874-4.4063 0-.9751.2727-1.8065.7812-2.5s1.1276-1.0624 1.9062-1.0625c.6836.0001 1.2283.2325 1.5938.6875 .3655.4551.6977,1.1141 1.0312,1.9375 .6676,1.582 1.4846,2.7511 2.4063,3.5313 .9375.7801 2.2075,1.1875 3.8125,1.1875 1.303,0 2.3612-.4074 3.1875-1.1875 .8422-.8018 1.25-1.7002 1.25-2.7188 0-1.5602-.4386-2.7223-1.3125-3.4375-.8581-.7151-2.2637-1.3811-4.25-2.0312-2.2406-.7585-4.0857-1.5515-5.5-2.375-1.3984-.8451-2.5015-1.9473-3.3438-3.3125s-1.2812-3.0376-1.2812-5.0313c0-1.7769.4089-3.4805 1.1875-5.0625s1.9278-2.81809 3.4375-3.74996c1.5255-.95345 3.3548-1.43747 5.5-1.4375zm20.1562,0c.89,3e-005 1.6308.42654 2.2188,1.25 .6037.80184.9062,1.91354.9062,3.34376v.8437c1.1284-1.84193 2.3379-3.19561 3.625-4.06246s2.7081-1.31247 4.2813-1.3125c1.6368,3e-005 3.0429.4553 4.2187,1.34375s2.1434,2.23264 2.9063,4.03121c1.0964-1.82024 2.2757-3.16436 3.5313-4.03121 1.2552-.88845 2.6619-1.34372 4.1874-1.34375 1.7799,3e-005 3.3066.48403 4.5938,1.4375s2.2393,2.3168 2.875,4.09376c.5561,1.6036.8436,4.1169.8438,7.5625v17.3437c-.0003,1.8637-.3178,3.2557-.9376,4.1875s-1.4205,1.4063-2.4374,1.4063c-.9854,0-1.8019-.4744-2.4376-1.4063-.6196-.9535-.9374-2.3455-.9374-4.1875v-14.9375c0-1.9069-.06-3.4139-.1876-4.5625-.1109-1.1485-.4443-2.1261-.9687-2.9062s-1.3103-1.1562-2.375-1.1563c-.8581.0001-1.6589.3379-2.4375,1.0313-.7628.6935-1.3834,1.6111-1.8125,2.7812-.4767,1.4953-.7187,4.1452-.7187,7.9375v11.8125c0,1.8637-.2866,3.2557-.9063,4.1875s-1.4518,1.4063-2.4687,1.4063c-.9854,0-1.7866-.4744-2.4063-1.4063-.6039-.9318-.9063-2.3238-.9063-4.1875v-14.1562c0-2.2321-.045-3.9523-.1562-5.1875s-.4138-2.2511-.9062-3.0313c-.4927-.8017-1.2791-1.1874-2.3438-1.1875-2.1294.0001-3.5353.9751-4.2188,2.9688-.6673,1.9937-1,4.8664-1,8.5937v12c0,1.842-.3178,3.234-.9374,4.1875-.604.9319-1.4052,1.4063-2.4063,1.4063-.9852,0-1.8018-.4744-2.4375-1.4063-.6197-.9535-.9064-2.3455-.9062-4.1875v-25.4062c0-1.66859.2564-2.91441.8124-3.78126 .5723-.86678 1.3284-1.31247 2.25-1.3125zm49.5313,0c1.6844,3e-005 3.1965.24203 4.5313.71875 1.3507.47677 2.4851,1.10448 3.375,1.90625 .9057.80184 1.5704,1.71236 2.0312,2.68746 .4767.9752.7186,1.912.7188,2.8438-.0002,1.0185-.2416,1.8499-.75,2.5-.4927.6501-1.2034.9688-2.125.9687-.6675.0001-1.2421-.2611-1.7188-.7812-.4608-.5201-.9899-1.2723-1.5938-2.3125-.4925-.8668-1.0826-1.5737-1.75-2.0938s-1.5746-.7812-2.7187-.7812c-1.176,0-2.1588.3378-2.9375,1.0312-.7786.6718-1.1563,1.5128-1.1562,2.5313 0,.9318.2717,1.7057.8437,2.3125 .5721.5851 1.3431,1.0787 2.3125,1.4687s2.2997.8741 4,1.4375c2.0182.6718 3.6662,1.4745 4.9375,2.4063 1.2872.9318 2.2547,2.0339 2.9063,3.3125 .6674,1.2569.9999,2.6872 1,4.3125 0,2.4488-.4386,4.5572-1.3126,6.3125-.874,1.7336-2.1588,3.0586-3.875,3.9687-1.7002.8885-3.7715,1.3438-6.2187,1.3438-2.3359,0-4.3314-.4936-6-1.4688s-2.8929-2.2043-3.6875-3.6562c-.7945-1.4736-1.2187-2.9327-1.2188-4.4063 0-.9751.2728-1.8065.7813-2.5s1.1589-1.0624 1.9375-1.0625c.6833.0001 1.197.2325 1.5625.6875 .3654.4551.7288,1.1141 1.0625,1.9375 .6674,1.582 1.4532,2.7511 2.375,3.5313 .9375.7801 2.2074,1.1875 3.8125,1.1875 1.303,0 2.3613-.4074 3.1875-1.1875 .8422-.8018 1.2813-1.7002 1.2812-2.7188 0-1.5602-.4385-2.7223-1.3124-3.4375-.8582-.7151-2.295-1.3811-4.2813-2.0312-2.2407-.7585-4.0544-1.5515-5.4687-2.375-1.3984-.8451-2.5328-1.9473-3.375-3.3125s-1.25-3.0376-1.25-5.0313c0-1.7769.3776-3.4805 1.1562-5.0625s1.9278-2.81809 3.4375-3.74996c1.5255-.95345 3.3548-1.43747 5.5-1.4375z" fill="#eee"/>
  <path d="m1101.4 919.93c-56.674 0-102.62 47.725-102.62 106.56 0 3.7524 0.1979 7.4415 0.5625 11.094 50.067 18.726 126.58 32.369 204.69-10.594 8e-4 -0.1669 0-0.3329 0-0.5 0-58.837-45.951-106.56-102.62-106.56z" fill="url(#b)"/>
 </g>
</svg>
